<?xml version="1.0" encoding="utf-8"?>
<!-- Generator: Adobe Illustrator 27.6.1, SVG Export Plug-In . SVG Version: 6.00 Build 0)  -->
<svg version="1.1" id="Camada_1" xmlns="http://www.w3.org/2000/svg" xmlns:xlink="http://www.w3.org/1999/xlink" x="0px" y="0px"
	 viewBox="0 0 60 60" style="enable-background:new 0 0 60 60;" xml:space="preserve">
<style type="text/css">
	.st0{fill-rule:evenodd;clip-rule:evenodd;fill:#FFFFFF;}
	.st1{fill-rule:evenodd;clip-rule:evenodd;fill:#70C9F1;}
	.st2{fill-rule:evenodd;clip-rule:evenodd;fill:#FFFFFF;stroke:#FFFFFF;stroke-miterlimit:10;}
</style>
<g>
	<g>
		<path class="st0" d="M55.3,38c-3.6,10.1-13.2,17.4-24.6,17.4c-14.4,0-26-11.6-26-26c0-11.7,7.8-21.7,18.5-24.9
			C14.8,8.3,8.9,16.9,8.9,26.8c0,13.6,11,24.6,24.6,24.6C43,51.3,51.3,45.9,55.3,38L55.3,38z"/>
	</g>
	<g>
		<path class="st1" d="M19.1,43.6c0,0-0.6-5.2,4.2-5.2c4.8,0,5.9-5.9,5.9-5.9l-4.6-4.6C14.3,32.4,19.1,43.6,19.1,43.6L19.1,43.6z"/>
		<path class="st1" d="M27.2,41.5c-0.3,0-0.5,0.1-0.6,0.4c-0.7,1.3-1.8,3.4-1.8,4.2c0,1.4,1.1,2.4,2.4,2.4c1.3,0,2.3-1,2.3-2.4
			c0-0.9-1-3-1.7-4.2C27.6,41.6,27.4,41.5,27.2,41.5L27.2,41.5z"/>
		<path class="st2" d="M30.4,31.3l-4.7-4.6c0,0,17.1-17.1,18.4-18c0,0,2.4-0.6,2.5,1.8C44.9,13.6,30.4,31.3,30.4,31.3L30.4,31.3z"/>
	</g>
</g>
</svg>
